# xmcd CD database file
#
# Track frame offsets:
#	150
#	15406
#	30027
#	45704
#	58670
#	74763
#	90424
#	103604
#	119947
#
# Disc length: 1809 seconds
#
# Revision: 0
# Processed by: cddbd v1.5.2PL0 Copyright (c) Steve Scherf et al.
# Submitted via: CDex 1.51
#
DISCID=72070f09
DTITLE=Nichols Brothers - Call It Love
DYEAR=1995
DGENRE=Country
TTITLE0=Let's Not Call It Love
TTITLE1=Dirty Dollar Day
TTITLE2=Desperately
TTITLE3=Let's Do Love
TTITLE4=She's Gone
TTITLE5=Simply
TTITLE6=Who the Hell Is Henry
TTITLE7=RagTop Pony
TTITLE8=The Ring
EXTD=YEAR: 1995
EXTT0=
EXTT1=
EXTT2=
EXTT3=
EXTT4=
EXTT5=
EXTT6=
EXTT7=
EXTT8=
PLAYORDER=
